<svg width="15" height="28" viewBox="0 0 15 28" fill="none" xmlns="http://www.w3.org/2000/svg">
<path id="Vector" d="M5.57339 18.9737C5.57339 17.0552 5.73991 15.6759 6.07294 14.8356C6.40596 13.9952 7.11101 13.0772 8.18807 12.0816C9.12844 11.2289 9.84541 10.489 10.339 9.86188C10.8326 9.23472 11.0789 8.51804 11.078 7.71183C11.078 6.74078 10.7628 5.93552 10.1326 5.29605C9.50229 4.65657 8.62477 4.33684 7.5 4.33684C6.33027 4.33684 5.44174 4.70394 4.8344 5.43815C4.22706 6.17236 3.79679 6.91841 3.54358 7.67631L0 6.11315C0.481651 4.59736 1.36468 3.28289 2.64908 2.16973C3.93349 1.05658 5.55046 0.5 7.5 0.5C9.90825 0.5 11.7605 1.193 13.0569 2.579C14.3532 3.96499 15.0009 5.62857 15 7.56973C15 8.75394 14.7537 9.76667 14.261 10.6079C13.7683 11.4492 12.994 12.4022 11.9381 13.4671C10.8142 14.5802 10.1321 15.4272 9.89174 16.0079C9.65137 16.5887 9.53073 17.5772 9.52981 18.9737H5.57339ZM7.5 27.5C6.74312 27.5 6.09541 27.2219 5.55688 26.6658C5.01835 26.1097 4.74862 25.4404 4.74771 24.6579C4.74679 23.8753 5.01651 23.2065 5.55688 22.6513C6.09725 22.0962 6.74495 21.8177 7.5 21.8158C8.25504 21.8139 8.90321 22.0924 9.44449 22.6513C9.98578 23.2103 10.255 23.8791 10.2523 24.6579C10.2495 25.4366 9.98027 26.1059 9.44449 26.6658C8.90871 27.2257 8.26055 27.5038 7.5 27.5Z" fill="white"/>
</svg>
