<svg width="38" height="34" viewBox="0 0 38 34" fill="none" xmlns="http://www.w3.org/2000/svg">
<path id="Vector" d="M37.5075 17.5346L20.4091 1.0226C19.689 0.325799 18.306 0.325799 17.5859 1.0226L0.487546 17.5346C0.241862 17.7719 0.0805985 18.066 0.0232776 18.3813C-0.0340433 18.6967 0.0150367 19.0197 0.164576 19.3113C0.468548 19.9073 1.14868 20.2904 1.89911 20.2904H5.69876V31.8488C5.69876 32.2867 5.89892 32.7067 6.2552 33.0164C6.61149 33.326 7.09471 33.5 7.59858 33.5H13.298C13.8019 33.5 14.2851 33.326 14.6414 33.0164C14.9977 32.7067 15.1979 32.2867 15.1979 31.8488V25.244H22.7971V31.8488C22.7971 32.2867 22.9973 32.7067 23.3536 33.0164C23.7099 33.326 24.1931 33.5 24.697 33.5H30.3964C30.9003 33.5 31.3835 33.326 31.7398 33.0164C32.0961 32.7067 32.2963 32.2867 32.2963 31.8488V20.2904H36.0959C36.4638 20.2918 36.8243 20.2001 37.1333 20.0265C37.4423 19.8529 37.6865 19.6049 37.8361 19.3127C37.9858 19.0206 38.0344 18.6969 37.976 18.3812C37.9176 18.0654 37.7549 17.7713 37.5075 17.5346Z" fill="black"/>
</svg>
