<svg width="60" height="61" viewBox="0 0 60 61" fill="none" xmlns="http://www.w3.org/2000/svg">
<g id="image-02-stroke-rounded 1">
<path id="Vector" d="M6.25 30.5C6.25 19.3041 6.25 13.7062 9.7281 10.2281C13.2062 6.75 18.8041 6.75 30 6.75C41.1958 6.75 46.7938 6.75 50.272 10.2281C53.75 13.7062 53.75 19.3041 53.75 30.5C53.75 41.6958 53.75 47.2938 50.272 50.772C46.7938 54.25 41.1958 54.25 30 54.25C18.8041 54.25 13.2062 54.25 9.7281 50.772C6.25 47.2938 6.25 41.6958 6.25 30.5Z" stroke="black" stroke-width="1.5"/>
<path id="Vector_2" d="M41.25 23C43.3211 23 45 21.3211 45 19.25C45 17.1789 43.3211 15.5 41.25 15.5C39.1789 15.5 37.5 17.1789 37.5 19.25C37.5 21.3211 39.1789 23 41.25 23Z" stroke="black" stroke-width="1.5"/>
<path id="Vector_3" d="M38 54.5C36.4751 49.2154 32.9157 44.4825 27.8498 41.0437C22.388 37.3356 15.5302 35.3731 8.50016 35.5064C7.66543 35.5045 6.83141 35.5301 6 35.5833" stroke="black" stroke-width="1.5" stroke-linejoin="round"/>
<path id="Vector_4" d="M32.5 45.5C36.7538 42.1833 41.3363 40.482 45.9655 40.5003C48.5905 40.4975 51.203 41.054 53.75 42.1543" stroke="black" stroke-width="1.5" stroke-linejoin="round"/>
</g>
</svg>
