<svg width="60" height="54" viewBox="0 0 60 54" fill="none" xmlns="http://www.w3.org/2000/svg">
<g id="la:list-alt-solid">
<path id="Vector" d="M20.4837 9.99925C19.7978 9.38107 18.7558 9.38079 18.0695 9.9986L14.3265 13.3683C13.6436 13.9831 12.6067 13.9828 11.9242 13.3676C11.2416 12.7523 10.2014 12.7548 9.51854 13.3698C8.72231 14.0869 8.7187 15.3392 9.51518 16.0561L11.775 18.0899C12.5502 18.7565 13.6961 18.7565 14.4713 18.0899L20.4828 12.6796C21.2785 11.9635 21.2789 10.7159 20.4837 9.99925ZM29.8125 11.8124C28.8805 11.8124 28.125 12.568 28.125 13.4999C28.125 14.4319 28.8805 15.1874 29.8125 15.1874H50.8125C51.7445 15.1874 52.5 14.4319 52.5 13.4999C52.5 12.568 51.7445 11.8124 50.8125 11.8124H29.8125ZM20.4835 23.4976C19.7976 22.8802 18.7562 22.8802 18.0703 23.4976L14.3258 26.8677C13.6431 27.4821 12.6068 27.4823 11.9239 26.8681C11.2411 26.2541 10.2029 26.2562 9.52014 26.8703C8.72373 27.5865 8.72064 28.8376 9.5168 29.5542L11.7769 31.5882C12.5521 32.2548 13.698 32.2548 14.4731 31.5882L20.4835 26.1789C21.2796 25.4624 21.2796 24.2141 20.4835 23.4976ZM29.8125 25.3124C28.8805 25.3124 28.125 26.068 28.125 26.9999C28.125 27.9319 28.8805 28.6874 29.8125 28.6874H50.8125C51.7445 28.6874 52.5 27.9319 52.5 26.9999C52.5 26.068 51.7445 25.3124 50.8125 25.3124H29.8125ZM20.4837 36.9993C19.7978 36.3811 18.7558 36.3808 18.0695 36.9986L14.3265 40.3683C13.6436 40.9831 12.6067 40.9828 11.9242 40.3676C11.2416 39.7523 10.2014 39.7548 9.51854 40.3698C8.72231 41.0869 8.7187 42.3392 9.51518 43.0561L11.775 45.0899C12.5502 45.7565 13.6961 45.7565 14.4713 45.0899L20.4828 39.6796C21.2785 38.9635 21.2789 37.7159 20.4837 36.9993ZM29.8125 38.8124C28.8805 38.8124 28.125 39.568 28.125 40.4999C28.125 41.4319 28.8805 42.1874 29.8125 42.1874H50.8125C51.7445 42.1874 52.5 41.4319 52.5 40.4999C52.5 39.568 51.7445 38.8124 50.8125 38.8124H29.8125Z" fill="black"/>
</g>
</svg>
