<svg width="111" height="50" viewBox="0 0 111 50" fill="none" xmlns="http://www.w3.org/2000/svg">
<path fill-rule="evenodd" clip-rule="evenodd" d="M37 13H8V43H37V13ZM31.1352 29H14V30.7241H31.1352V29ZM14 33.4429H31.1352V35.167H14V33.4429ZM31.1352 37.8857H14V39.6098H31.1352V37.8857Z" fill="#FD7463"/>
<ellipse cx="9.31034" cy="17.6538" rx="9.31034" ry="9.34615" fill="#FD7463"/>
<ellipse cx="22.2414" cy="9.86538" rx="9.82759" ry="9.86538" fill="#FD7463"/>
<ellipse cx="35.6897" cy="17.6538" rx="9.31034" ry="9.34615" fill="#FD7463"/>
<path d="M58.26 4.88C57.7533 4.88 57.42 5.07333 57.26 5.46C57.1 5.83333 57.02 6.44 57.02 7.28V10.48H59.66V10.84H57.02V19.64H59.46V20H52.2V19.64H53.3V10.84H52.14V10.48H53.3V10.4C53.3 8.48 53.6667 7.02667 54.4 6.04C55.1333 5.04 56.36 4.54 58.08 4.54C59.2133 4.54 60.0267 4.76667 60.52 5.22C61.0133 5.66 61.26 6.17333 61.26 6.76C61.26 7.34667 61.1067 7.78667 60.8 8.08C60.4933 8.37333 60.0867 8.52 59.58 8.52C59.0733 8.52 58.68 8.39333 58.4 8.14C58.1333 7.87333 58 7.57333 58 7.24C58 6.89333 58.04 6.56 58.12 6.24H58.88C59.1467 5.33333 58.94 4.88 58.26 4.88ZM65.9256 16.06V14.36C65.9256 13.0667 65.8523 12.1267 65.7056 11.54C65.5723 10.94 65.2523 10.64 64.7456 10.64C64.4523 10.64 64.2123 10.7267 64.0256 10.9C63.8523 11.06 63.7256 11.3333 63.6456 11.72C63.5256 12.32 63.4656 13.2333 63.4656 14.46V16.02C63.4656 17.4733 63.5056 18.3467 63.5856 18.64C63.679 18.9333 63.7723 19.1733 63.8656 19.36C64.0123 19.68 64.299 19.84 64.7256 19.84C65.2456 19.84 65.5856 19.54 65.7456 18.94C65.8656 18.5133 65.9256 17.5533 65.9256 16.06ZM64.6856 20.2C63.019 20.2 61.759 19.7733 60.9056 18.92C60.0523 18.0667 59.6256 16.8467 59.6256 15.26C59.6256 13.66 60.079 12.4333 60.9856 11.58C61.9056 10.7133 63.1923 10.28 64.8456 10.28C66.499 10.28 67.7323 10.68 68.5456 11.48C69.359 12.2667 69.7656 13.4733 69.7656 15.1C69.7656 18.5 68.0723 20.2 64.6856 20.2ZM76.785 16.06V14.36C76.785 13.0667 76.7117 12.1267 76.565 11.54C76.4317 10.94 76.1117 10.64 75.605 10.64C75.3117 10.64 75.0717 10.7267 74.885 10.9C74.7117 11.06 74.585 11.3333 74.505 11.72C74.385 12.32 74.325 13.2333 74.325 14.46V16.02C74.325 17.4733 74.365 18.3467 74.445 18.64C74.5383 18.9333 74.6317 19.1733 74.725 19.36C74.8717 19.68 75.1583 19.84 75.585 19.84C76.105 19.84 76.445 19.54 76.605 18.94C76.725 18.5133 76.785 17.5533 76.785 16.06ZM75.545 20.2C73.8783 20.2 72.6183 19.7733 71.765 18.92C70.9117 18.0667 70.485 16.8467 70.485 15.26C70.485 13.66 70.9383 12.4333 71.845 11.58C72.765 10.7133 74.0517 10.28 75.705 10.28C77.3583 10.28 78.5917 10.68 79.405 11.48C80.2183 12.2667 80.625 13.4733 80.625 15.1C80.625 18.5 78.9317 20.2 75.545 20.2ZM85.2444 15.86C85.2444 17.26 85.3177 18.1933 85.4644 18.66C85.611 19.1133 85.8777 19.34 86.2644 19.34C86.6644 19.34 87.0044 19.1667 87.2844 18.82C87.5777 18.4733 87.7244 17.96 87.7244 17.28V12.92C87.7244 12.3467 87.611 11.86 87.3844 11.46C87.1577 11.06 86.8244 10.86 86.3844 10.86C85.9444 10.86 85.6444 11.1533 85.4844 11.74C85.3244 12.3267 85.2444 13.3533 85.2444 14.82V15.86ZM87.9844 20L87.7644 18.6C87.311 19.6667 86.391 20.2 85.0044 20.2C83.8577 20.2 82.9644 19.7867 82.3244 18.96C81.6977 18.1333 81.3844 16.9 81.3844 15.26C81.3844 11.94 82.7044 10.28 85.3444 10.28C86.5177 10.28 87.291 10.6067 87.6644 11.26V5.36H86.4444V5H91.4444V19.64H92.4244V20H87.9844Z" fill="black"/>
<path d="M68.72 35.72C68.48 36.3733 68.1 36.9267 67.58 37.38C67.06 37.82 66.5733 38.12 66.12 38.28C65.68 38.44 65.28 38.52 64.92 38.52C63.9467 38.52 63.46 38.14 63.46 37.38C63.46 36.6067 63.8867 35.9067 64.74 35.28C65.14 34.9867 65.5733 34.7933 66.04 34.7C66.1067 34.7 66.14 34.7267 66.14 34.78C66.14 34.8067 66.1267 34.8333 66.1 34.86C65.7667 35.1133 65.4467 35.5067 65.14 36.04C64.8467 36.5733 64.7 37.04 64.7 37.44C64.7 37.84 64.8667 38.04 65.2 38.04C65.4667 38.04 65.7267 37.9333 65.98 37.72C66.2467 37.4933 66.4467 37.2667 66.58 37.04L66.78 36.72C67.0467 36.2933 67.2667 35.6133 67.44 34.68C67.6267 33.7467 67.7467 32.92 67.8 32.2L67.86 31.12C67.86 31.0133 67.84 30.96 67.8 30.96L67.72 31L65.74 33.32C65.5933 33.4933 65.4933 33.58 65.44 33.58C65.3733 33.58 65.34 33.5333 65.34 33.44C65.34 33.2667 65.3867 33.1333 65.48 33.04L65.66 32.82C67.18 31.1133 68.0467 30.08 68.26 29.72C68.46 29.4133 68.7533 29.1467 69.14 28.92C69.5133 28.7067 69.9533 28.6 70.46 28.6C70.5933 28.6 70.66 28.6533 70.66 28.76C70.66 28.8267 70.6067 28.8867 70.5 28.94C70.46 28.9533 70.4067 28.9867 70.34 29.04C70.2867 29.08 70.18 29.1867 70.02 29.36C69.8733 29.5333 69.74 29.7333 69.62 29.96C69.5 30.1867 69.3933 30.5067 69.3 30.92C69.2067 31.32 69.16 31.7667 69.16 32.26C69.16 33.7933 69.0133 34.9467 68.72 35.72ZM72.9488 34.98C73.5088 34.42 74.2488 33.6133 75.1688 32.56C75.2088 32.52 75.2421 32.5 75.2688 32.5C75.2954 32.5 75.3088 32.5267 75.3088 32.58C75.3088 32.8333 75.2088 33.08 75.0088 33.32C74.0221 34.4133 73.1488 35.3267 72.3888 36.06C70.7888 37.6067 69.7288 38.38 69.2087 38.38C69.0221 38.38 68.9287 38.26 68.9287 38.02C68.9287 37.74 69.0354 37.32 69.2487 36.76C69.4621 36.2 69.6754 35.7067 69.8888 35.28L70.2088 34.66C70.5154 34.1133 71.0221 33.18 71.7288 31.86C72.4354 30.54 73.1154 29.2933 73.7688 28.12C74.4354 26.9467 75.0621 25.8867 75.6488 24.94H74.0688C73.9354 24.94 73.8688 24.9067 73.8688 24.84C73.8688 24.7733 73.9221 24.7067 74.0288 24.64C74.1354 24.5733 74.2488 24.54 74.3688 24.54C74.6621 24.54 75.1754 24.5333 75.9088 24.52C76.5621 23.4933 77.1221 22.68 77.5888 22.08C78.0021 21.56 78.2888 21.3 78.4488 21.3C78.5421 21.3 78.5888 21.36 78.5888 21.48C78.5888 21.76 78.3354 22.36 77.8288 23.28L77.1488 24.52H79.2088C79.3288 24.52 79.3888 24.5533 79.3888 24.62C79.3888 24.8333 79.1954 24.94 78.8088 24.94H76.9288C73.8488 30.78 72.2288 33.84 72.0688 34.12C71.5088 35.1467 71.2288 35.8133 71.2288 36.12C71.2288 36.2133 71.2621 36.26 71.3288 36.26C71.5154 36.26 72.0554 35.8333 72.9488 34.98ZM82.0173 30.96C82.1373 30.9867 82.1973 31.0267 82.1973 31.08C82.1973 31.16 82.144 31.2533 82.0373 31.36C81.8907 31.5067 81.6707 31.7 81.3773 31.94C81.0973 32.18 80.9307 32.3267 80.8773 32.38L80.5973 32.76C80.3173 33.5467 79.884 34.3667 79.2973 35.22C78.724 36.06 78.0173 36.8 77.1773 37.44C76.3507 38.08 75.5573 38.4 74.7973 38.4C73.8507 38.4 73.3773 37.82 73.3773 36.66C73.3773 35.6333 73.7107 34.5267 74.3773 33.34C75.044 32.14 75.904 31.12 76.9573 30.28C78.024 29.4267 79.0707 29 80.0973 29C80.844 29 81.2173 29.2933 81.2173 29.88C81.2173 30.2 81.0573 30.6333 80.7373 31.18C80.724 31.1933 80.7173 31.2133 80.7173 31.24C80.7173 31.2667 80.7307 31.28 80.7573 31.28C81.2507 31.08 81.6707 30.9733 82.0173 30.96ZM80.1173 31.44C80.224 30.9733 80.2773 30.6133 80.2773 30.36C80.2773 29.8 80.0907 29.52 79.7173 29.52C79.1973 29.52 78.5507 30 77.7773 30.96C77.004 31.92 76.3373 33 75.7773 34.2C75.2307 35.4 74.9573 36.3467 74.9573 37.04C74.9573 37.5467 75.1373 37.8 75.4973 37.8C76.0573 37.8 76.724 37.24 77.4973 36.12C78.284 35 78.7573 33.8733 78.9173 32.74C78.904 32.7133 78.8973 32.6733 78.8973 32.62C78.8973 32.2333 79.244 31.8867 79.9373 31.58C80.044 31.54 80.104 31.4933 80.1173 31.44ZM85.2505 33.86C85.1438 33.86 85.0905 33.82 85.0905 33.74C85.0905 33.7 85.1105 33.6467 85.1505 33.58C85.9371 32.3533 86.3305 31.5133 86.3305 31.06C86.3305 30.94 86.2838 30.88 86.1905 30.88C85.7905 30.88 84.8505 31.7867 83.3705 33.6C82.9305 34.16 82.5171 34.74 82.1305 35.34C81.7571 35.94 81.4971 36.4 81.3505 36.72L81.1105 37.18C80.9505 37.5 80.7038 37.7933 80.3705 38.06C80.0371 38.34 79.6905 38.48 79.3305 38.48C79.1438 38.48 79.0505 38.4333 79.0505 38.34C79.0505 38.26 79.1105 38.0933 79.2305 37.84C79.3371 37.5867 79.4705 37.3067 79.6305 37C79.7905 36.6933 79.9505 36.3933 80.1105 36.1C80.2705 35.8067 80.4038 35.56 80.5105 35.36L80.6905 35.06L82.7905 31.4C83.6038 29.8667 84.4571 29.1 85.3505 29.1C85.4705 29.1 85.5305 29.1467 85.5305 29.24C85.5305 29.36 85.2371 29.86 84.6505 30.74C84.0771 31.6067 83.7438 32.16 83.6505 32.4C83.6238 32.48 83.6105 32.5267 83.6105 32.54C83.6105 32.5667 83.6238 32.58 83.6505 32.58C83.6771 32.58 83.7238 32.5467 83.7905 32.48C84.7905 31.3467 85.8505 30.34 86.9705 29.46C87.0371 29.3933 87.1838 29.3 87.4105 29.18C87.6371 29.0467 87.8371 28.98 88.0105 28.98C88.2638 28.98 88.3905 29.2 88.3905 29.64C88.3905 30.12 88.2305 30.6933 87.9105 31.36C87.5905 32.0267 87.1571 32.6133 86.6105 33.12L86.5305 33.2C86.4771 33.24 86.4171 33.2867 86.3505 33.34C86.2971 33.38 86.2238 33.4333 86.1305 33.5C86.0371 33.5667 85.9438 33.6267 85.8505 33.68C85.7571 33.72 85.6571 33.76 85.5505 33.8C85.4438 33.84 85.3438 33.86 85.2505 33.86ZM90.3703 35.16L91.2103 33.52C91.2103 33.48 91.197 33.46 91.1703 33.46C91.1436 33.46 91.1103 33.48 91.0703 33.52C90.577 34.0933 90.057 34.66 89.5103 35.22C88.9636 35.7667 88.5436 36.1733 88.2503 36.44L87.8103 36.84C86.8103 37.7867 86.1036 38.26 85.6903 38.26C85.5036 38.26 85.4103 38.14 85.4103 37.9C85.4103 37.6333 85.517 37.2333 85.7303 36.7C85.9436 36.1533 86.157 35.68 86.3703 35.28L86.6903 34.66C87.8103 32.5667 88.637 31.1667 89.1703 30.46C89.437 30.1133 89.7636 29.8267 90.1503 29.6C90.537 29.36 90.837 29.24 91.0503 29.24C91.1836 29.24 91.2503 29.2867 91.2503 29.38C91.2503 29.4333 91.2236 29.5067 91.1703 29.6C91.1436 29.6533 90.8703 30.1 90.3503 30.94C89.8303 31.7667 89.4103 32.48 89.0903 33.08C88.2103 34.6933 87.7703 35.62 87.7703 35.86C87.7703 35.9533 87.8103 36 87.8903 36C88.0103 36 88.217 35.88 88.5103 35.64C89.377 34.8933 90.3303 33.8867 91.3703 32.62C91.9436 32.0067 92.5436 31.2067 93.1703 30.22C93.3436 29.9533 93.597 29.7267 93.9303 29.54C94.277 29.34 94.5903 29.24 94.8703 29.24C94.9903 29.24 95.0503 29.2933 95.0503 29.4L94.8903 29.78C94.7036 30.1133 94.2836 30.8467 93.6303 31.98C92.9903 33.1 92.6303 33.7333 92.5503 33.88C92.4436 34.08 92.197 34.5133 91.8103 35.18C91.437 35.8333 91.1703 36.3 91.0103 36.58C91.8503 35.9 92.5436 35.3133 93.0903 34.82C93.677 34.2067 94.3636 33.4533 95.1503 32.56C95.1903 32.52 95.2236 32.5 95.2503 32.5C95.277 32.5 95.2903 32.5267 95.2903 32.58C95.2903 32.8333 95.1903 33.08 94.9903 33.32C94.4036 33.96 93.897 34.5067 93.4703 34.96C92.9103 35.5467 91.9103 36.4 90.4703 37.52L89.9503 38.48C87.377 43.2133 85.6036 46.2933 84.6303 47.72C84.537 47.8667 84.417 48.04 84.2703 48.24C84.1236 48.4533 83.8836 48.7333 83.5503 49.08C83.217 49.44 82.9503 49.62 82.7503 49.62C82.4303 49.62 82.2703 49.16 82.2703 48.24C82.2703 46.88 82.757 45.4 83.7303 43.8C84.7836 42.08 86.4103 40.3133 88.6103 38.5C89.0503 37.7 89.637 36.5867 90.3703 35.16ZM84.2303 43.76C84.1236 43.92 83.997 44.1267 83.8503 44.38C83.7036 44.6467 83.5036 45.0933 83.2503 45.72C82.997 46.36 82.8703 46.8933 82.8703 47.32C82.8703 47.5467 82.9103 47.66 82.9903 47.66C83.057 47.66 83.157 47.5933 83.2903 47.46C83.4236 47.34 83.537 47.2133 83.6303 47.08L83.7703 46.88C85.0903 44.8133 86.5236 42.3467 88.0703 39.48C86.337 41 85.057 42.4267 84.2303 43.76Z" fill="black"/>
</svg>
