<svg width="25" height="24" viewBox="0 0 25 24" fill="none" xmlns="http://www.w3.org/2000/svg">
<g id="body-part-muscle-stroke-rounded 1">
<path id="Vector" d="M2.76798 20.3051C3.89662 21.9196 8.80948 23.1871 11.1298 20.1645C13.6395 21.3649 17.779 20.9928 21.1492 19.1134C21.6179 18.8521 22.0613 18.5222 22.3328 18.0593C22.9458 17.0143 22.9603 15.5644 21.842 13.4251C19.9775 8.77072 16.6241 4.68513 15.2702 3.04212C14.9922 2.78865 13.2188 2.42868 12.1373 2.08279C11.6596 1.93477 10.7701 1.83664 9.70618 3.23862C9.20182 3.90329 6.91065 5.5357 9.81773 6.63346C10.2681 6.74806 10.5992 6.95939 12.6539 6.58404C12.9215 6.53761 13.5896 6.58404 14.0604 7.41041L15.0437 8.81662C15.1352 8.94752 15.1946 9.09813 15.2128 9.25682C15.3851 10.7557 15.3795 12.6323 16.2152 13.5826C14.9244 12.6492 11.5512 11.5406 9.00956 14.6951M2.75195 12.94C3.96015 11.791 7.46203 9.97592 11.168 12.5216" stroke="black" strokeWidth="1.5" strokeLinecap="round" strokeLinejoin="round"/>
</g>
</svg>
