<svg width="34" height="34" viewBox="0 0 34 34" fill="none" xmlns="http://www.w3.org/2000/svg">
<path id="Vector" d="M4.16671 13.3332C4.16671 10.9021 5.1325 8.57051 6.85161 6.85145C8.57072 5.13239 10.9023 4.16663 13.3335 4.16663C15.7647 4.16663 18.0963 5.13239 19.8155 6.85145C21.5346 8.57051 22.5004 10.9021 22.5004 13.3332C22.5004 15.7643 21.5346 18.0959 19.8155 19.8149C18.0963 21.534 15.7647 22.4998 13.3335 22.4998C10.9023 22.4998 8.57072 21.534 6.85161 19.8149C5.1325 18.0959 4.16671 15.7643 4.16671 13.3332ZM13.3335 0.5C11.3008 0.500004 9.29716 0.982849 7.48758 1.90878C5.678 2.8347 4.11425 4.17722 2.92511 5.82578C1.73597 7.47435 0.955445 9.38179 0.647817 11.391C0.340189 13.4003 0.514256 15.4539 1.15568 17.3827C1.79711 19.3115 2.88755 21.0604 4.3372 22.4853C5.78686 23.9102 7.55426 24.9704 9.49388 25.5785C11.4335 26.1867 13.4898 26.3254 15.4936 25.9833C17.4973 25.6412 19.3911 24.828 21.019 23.6107L30.3692 32.9625C30.7129 33.3065 31.1793 33.4998 31.6656 33.5C32.152 33.5002 32.6184 33.3071 32.9625 32.9634C33.3065 32.6196 33.4998 32.1533 33.5 31.667C33.5002 31.1806 33.3071 30.7142 32.9634 30.3702L23.6132 21.0203C25.0402 19.1127 25.908 16.8457 26.1196 14.4729C26.3312 12.1001 25.8781 9.7153 24.8111 7.5854C23.7442 5.45551 22.1054 3.66463 20.0783 2.41325C18.0512 1.16187 15.7158 0.499402 13.3335 0.5Z" fill="#FD7463"/>
</svg>
