<svg width="20" height="20" viewBox="0 0 20 20" fill="none" xmlns="http://www.w3.org/2000/svg">
<g id="entypo:check">
<path id="Vector" d="M8.29396 16.998C7.85896 16.998 7.44697 16.795 7.18297 16.445L3.60996 11.724C3.49924 11.5783 3.41838 11.4121 3.37202 11.2351C3.32565 11.0581 3.3147 10.8737 3.33978 10.6924C3.36487 10.5111 3.4255 10.3366 3.5182 10.1788C3.6109 10.021 3.73384 9.88311 3.87997 9.77296C4.02572 9.66193 4.19199 9.58081 4.36922 9.53427C4.54644 9.48773 4.73111 9.47669 4.91262 9.50178C5.09412 9.52688 5.26888 9.58761 5.42682 9.68048C5.58477 9.77336 5.7228 9.89655 5.83297 10.043L8.18396 13.147L14.095 3.65496C14.291 3.34156 14.6033 3.11871 14.9635 3.03529C15.3236 2.95186 15.7021 3.01468 16.016 3.20996C16.669 3.61596 16.87 4.47596 16.462 5.12996L9.47796 16.34C9.35874 16.5322 9.19441 16.6924 8.99924 16.8067C8.80406 16.921 8.58394 16.986 8.35796 16.996L8.29396 16.998Z" fill="white"/>
</g>
</svg>
