<svg width="18" height="18" viewBox="0 0 18 18" fill="none" xmlns="http://www.w3.org/2000/svg">
<g id="clarity:list-line" clip-path="url(#clip0_29_2022)">
<path id="Vector" d="M7.5 4H12V5H7.5V4Z" fill="white"/>
<path id="Vector_2" d="M7.5 6H12V7H7.5V6Z" fill="white"/>
<path id="Vector_3" d="M7.5 8H12V9H7.5V8Z" fill="white"/>
<path id="Vector_4" d="M7.5 10H12V11H7.5V10Z" fill="white"/>
<path id="Vector_5" d="M7.5 12H12V13H7.5V12Z" fill="white"/>
<path id="Vector_6" d="M5.5 4H6.5V5H5.5V4Z" fill="white"/>
<path id="Vector_7" d="M5.5 6H6.5V7H5.5V6Z" fill="white"/>
<path id="Vector_8" d="M5.5 8H6.5V9H5.5V8Z" fill="white"/>
<path id="Vector_9" d="M5.5 10H6.5V11H5.5V10Z" fill="white"/>
<path id="Vector_10" d="M5.5 12H6.5V13H5.5V12Z" fill="white"/>
<path id="Vector_11" d="M16.5 0H1.5C1.10218 0 0.720644 0.118526 0.43934 0.329505C0.158035 0.540483 0 0.826631 0 1.125V16.875C0 17.1734 0.158035 17.4595 0.43934 17.6705C0.720644 17.8815 1.10218 18 1.5 18H16.5C16.8978 18 17.2794 17.8815 17.5607 17.6705C17.842 17.4595 18 17.1734 18 16.875V1.125C18 0.826631 17.842 0.540483 17.5607 0.329505C17.2794 0.118526 16.8978 0 16.5 0ZM16.5 16.875H1.5V1.125H16.5V16.875Z" fill="white"/>
</g>
<defs>
<clipPath id="clip0_29_2022">
<rect width="18" height="18" fill="white"/>
</clipPath>
</defs>
</svg>
